<svg t="1711964094245" class="icon" viewBox="0 0 1024 1024" version="1.1" xmlns="http://www.w3.org/2000/svg" p-id="1545" width="200" height="200"><path d="M942.427 857.574L775.792 690.939C823.699 625.691 852 545.152 852 458c0-217.6-176.4-394-394-394S64 240.4 64 458s176.4 394 394 394c87.152 0 167.691-28.301 232.939-76.208l166.635 166.635c23.432 23.431 61.422 23.431 84.853 0 23.431-23.432 23.431-61.422 0-84.853zM458 762c-167.895 0-304-136.105-304-304s136.105-304 304-304 304 136.105 304 304-136.105 304-304 304z" fill="#29ABE2" p-id="1546"></path></svg>